<?xml version="1.0" encoding="utf-8"?>
<!-- Generator: Adobe Illustrator 24.2.3, SVG Export Plug-In . SVG Version: 6.00 Build 0)  -->
<svg version="1.1" id="Layer_1" xmlns="http://www.w3.org/2000/svg" xmlns:xlink="http://www.w3.org/1999/xlink" x="0px" y="0px"
	 viewBox="0 0 70 70" style="enable-background:new 0 0 70 70;" xml:space="preserve">
<style type="text/css">
	.st0{fill:#8089BA;}
	.st1{fill:#5C382A;}
	.st2{fill:#C09135;}
</style>
<g id="petals">
	<g id="p0">
		<path class="st0" d="M21.8,34.2c3.4-6.1-2.7-12.3-7.7-15.1c-1.6,1.1-8.2,4.5-10.1,5.1c-2.6,5.2,7.4,1.5,6.6,7.3
			c0.5,6-7.9,2.7-8.3,6.9C7.4,39.8,18.4,40.3,21.8,34.2z"/>
		<path class="st0" d="M68.9,28.3c-1.3-4.1-6.5-1.9-9.6-2.4c7.8-11.4-7.1-8.2-11.1-1.5c1.5-4.5,5.5-24.2-4.2-17.2
			c-0.2,2.1-4-9.2-6.7,0.6c-2,19.8-0.9-7-9.8-5.9c-5.2,3.7-0.5,11.4-0.7,17C13.5,8.9,30,31,22.6,35.4c4.6,5.6-0.6,5-3.7,9.4
			c3.2,1.3,6.1-3.4,8.6-0.9c1.4,2.3-1.8,4-3.4,5.2c-0.2-1.4-0.7-3-2.2-2.8c-5.6,0.4-18.6,5.2-6.2,4.7c1.5,2.6-6.3,5.7-1.9,8.4
			c3,1.8,7.5-7.4,9.1-2.6c6.9-5.3,1.4,4.8,4,8.1c1.9,1.7,2.2-1.6,3.9-1.7c2.3-0.1,1.3-2.3,1-3.4c-1.5-2.8,1.2-9-3.6-8.7
			c0.2-0.6,0.2-1.4,0.6-1.8c6.5-8.7,3.7,8.1,4.2,11.9c1.3-0.3,1.9-1.4,2.1-2.9c3.4,3.4,4.1-6.5,9-3.5c5.7,1.9-0.7,8.3,3,10.4
			c3.3-4.1,8.2-14,3.9-19.6c-3.2-4.2-8.7-3.4-13.1-1.3c-3-1.8-8.1-0.8-8.8-5.4c-0.4-10.4,15.2-13.8,15-1.7
			C42.8,45.5,71.2,35.1,68.9,28.3z"/>
	</g>
	<g id="p1_1_">
		<path class="st0" d="M27.8,41.5c-1.7-1-0.9-1.6,0-2.9c1-3.6-5.5,0-6.9-1.7c4.2,0.8,6.8-4.4,3-6.8c2.6,2.2,11.5,1.4,8.5-3.7
			c9.3,3,6.1-14,4.1-18.9c-2.3-5.3-5.6,1-8.7-1.5c-13.1,0.1-5.5,8.3-1.3,15.3c-4.9-0.5-7.3-5.2-11.5-6.1c-3.5,2.1-1.2,4.7,0,7.6
			c-8.7-4.7-9,3.4-1.1,4.8c-3.6,0.8-6.1-1.6-9.4-2c-2.7,5.5-2.4,5.9,2.7,7.3c0.3,2.2-1.9,2-2.7,3c-10.9,3.5,5.6,9.2,9.6,9.1
			c-7.9,3.7-7.3,8.5,0.8,10.8c0.5,2.6,2.4,1.2,3.5,0.9C22.1,55.6,30.6,45.4,27.8,41.5z M20.9,42.8c-0.9,1-2.1,1.2-3.3,1.4
			c1.6-0.6,3.1-1.5,4.6-2.7C22.4,42.3,21.3,42.3,20.9,42.8z"/>
		<path class="st0" d="M40.9,51.3c2.9-15.9-17.1,4.6-16.4,10.1c0.5,8.6,8.6,0,9.3-4.3c-0.8,3.7,4.7,8.5,7.5,4.7
			C42,58.2,38.7,55,40.9,51.3z"/>
		<path class="st0" d="M57.6,52.9c-1.1-2.1,1.8-4.9-1-6.7c-4-0.6-9.1-9.2-12.7-3.3c2.8,3.8,1.7,9.2,6.3,12
			C55.1,58.6,64.6,62.9,57.6,52.9z"/>
		<path class="st0" d="M60,37c-3.8-2.1-9.3-2.3-13,0.2C46.9,42.6,63.9,41.8,60,37z"/>
		<path class="st0" d="M41,6c1.4,6.5-6.2,19,0.7,21.8C41.5,21.4,47.8,9.7,41,6z"/>
		<path class="st0" d="M46.7,29.6c10.8-2-2.4-18.6-2.5-6.2C45.4,25.4,42.1,29.2,46.7,29.6z"/>
		<path class="st0" d="M46.6,34c1.1,3.7,16.4-3.9,8.9-4.6C52.7,30,46,30.1,46.6,34z"/>
	</g>
	<g id="p2_1_">
		<path class="st0" d="M46.2,26c2.2-3,6.3-17.7-1.2-11.9c-5.1-4.8-4.4,3.3-7.3,3.4c-0.7,0-0.1,2.3-2.2,2.5
			c1.6-9.9-12.5-18.9-6.1-3.5c-1.3-4.1-6-5.7-9.6-7.1c-4.9,4.3,0.7,7.9,0.6,11.9c-9.6-10.3-14.3,1.8-4.8,6c-2.1-0.5-4.2-2-6.3-2.8
			c-6.6-2.4-5.5,5.7,0.7,6c-9.7-0.2-6.7,11.2,2.2,8.2c-1.8,0.4-4.3,0.6-4.2,2.9c2,5.1,12,1.5,15.8-0.3c-2.7,2.7-6.5,4.4-8.6,8.6
			c2.4-0.7,4-1.2,6-1.8c-1.7,12.7,18.8-9.7,5.1-8.7c4.1-3.3-2.5-7.3,1.8-9.2C33.8,27,43.1,31.4,46.2,26z"/>
		<path class="st0" d="M37.1,43.5c-6.6-1.2-2.5,6.9-2.9,10.4c0.1,1.9-1,4.8,2.9,3.7C38.2,52.9,36.9,48.2,37.1,43.5z"/>
		<path class="st0" d="M63.9,32.5c-5.4-1.8-9,2.7-14.9,0.5c2.7-2.6,9.8-1,10.4-5.3c-4.4-2.7-11.2,2.9-16,4.1c-0.3,1.3,0.3,2,1.6,2.2
			c-1.6,0.7-1.7,2.3-1.7,3.8c0.8,0.2,1.6,0.4,2.3,0.6c-1.2,0.2-2.3,0.9-3.5,1.2c1.2,3,6.8,3.4,8.6,6.5c-2.6-0.4-5.2-1.2-7.5-2.5
			c-2,1.7-0.8,3.8-0.9,5.9c0,4.7,4.3,6.1,6.7,9c5.9,2.8,4.7-5.1,1.3-7.2c5.9,4.9,13.5,0.3,3.6-3.9c6.9,1.2,8.3-7.1,1.1-7.9
			c1.6-0.1,3.2-0.3,4.8-0.7c1.8-1.4,6.3,2.2,6-3.2C66.1,34,65.7,33.4,63.9,32.5z"/>
	</g>
	<g id="p3_1_">
		<path class="st0" d="M8.4,26.9c2.6,1.3,4.7,2.5,7.5,1.3c2.3-0.2,5.4,3.7,6.5,0.2c0.6-1.9-3.4-3.6-6.1-4.3c1.2-2,4.8,0.2,4.9-1.8
			c0.1-2.1-0.2-2.5,1.6-1.1c4.5,1,3.3,7.5,8.3,7.3c5.9,5.8,9.8,2.2,10.5-4.7c2,17.3,7.6-2.2,7.7-9.1c0-0.2,0.1-0.7,0.1-1
			c-0.4-0.9-1.5-1.6-0.8-2.8c-2.8,0-8.1-0.7-7.6,3.8c-13.4-17.1-9.4,16.1-17.9-0.4c-3.3-2.3-2.8-1.4-6.6,0.5
			c-2.2,1.1-5.6,3.7-8.9,1.4c-0.9,4,2.4,4,4.7,4.9C19.6,25.8-0.7,20.2,8.4,26.9z M37.2,19.9c-2.1-0.7-0.6-3.2-0.3-4.8
			C37.7,16.7,37.6,18.3,37.2,19.9z"/>
		<path class="st0" d="M7.1,33.3c4.4-0.5,12.4,2.3,15.1-1.1C19.7,28.4,0.1,29.6,7.1,33.3z"/>
		<path class="st0" d="M22.1,41.4c7.3-11-23.6-3.3-14.9,3.4c3.1-0.3,7.2-0.3,3.8,3.6C6.5,62,18,44.1,22.1,41.4z"/>
		<path class="st0" d="M60.9,35.5c-2.2-2.4-6.3-0.2-9.8-0.4c11.8-10.4,0.3-13.2-4.1-1.2c1.2,9.9-2.8,8.2-6.4,11.3
			c-2.8-0.8-4.6-5.3-7.3-3.1c-4.3,3.5-5.1-3.7-9.7,1.6c-3.3,5.3-9.8,10.7-9.8,16.5c2.7,4,7-5.2,20.6-3.3c-1.8,10,8-3.1,8.9-6.3
			c1,4,7.4,4.7,6.2-0.3c1.5,11.5,10.6-1.6,3.3-6.1C49.1,36.8,60.6,40.3,60.9,35.5z M49.1,50.1c-0.6,0.3,0.2-0.9,0.3-0.1
			C49.3,50,49.2,50.1,49.1,50.1z"/>
	</g>
	<g id="p4_1_">
		<path class="st0" d="M59.4,38.2c-2.8-2.4-6.6-2.2-10.3-3.5c6.9-3.6,16.5-5.7,3.2-6.9c11.9-6.3,0.7-5.3-5.1-2.6
			c6.6-3.9,1.7-17.2-3.8-9.9c1.3-5-3-3.3-4.2-6.6c-4.6-0.5-2.3,4.1-4.6,6.2c-8.8-13.8-9.7,9.3-2.5,14.3c7.6-1.2,7,7.6,8.5,13.4
			c-2.1-2.2-5.6,0.2-5.8,2.7c-1.9-1.9-4.5-5-7.6-2.9c-1.2-1.8-0.2-5-3.4-5.7c-16.7-4.5-28.4,15.3-5,6.2c-8.3,1.6-10.6,10.5-3.3,7.7
			c1.4,0.1,1.9-2.5,3.8-2.1c4.1,0.6,3.5-5,7.3-5.6c-1.5,1.5-2.5,3.2-0.2,4.8c3,1.9,0,5,3,7.2c0.1,13.4,7.9,7.7,7.2-1.5
			c2.5,3.2,7.4,15.9,7.3,4c4.4,3.6,4.2-0.6,2.5-4c1.5-1,2.2,0.6,2.8,1.2c4.7,4.9,13.5-9.3,2.3-12.4C44.9,38.1,67.2,44,59.4,38.2z
			 M45.4,48.8c1.4,1.3,0.6,1.8,0,2.5c0-1.1-0.2-2.1-0.5-3C45,48.4,45.2,48.6,45.4,48.8z"/>
		<path class="st0" d="M15.2,36.2c5.6-0.9,12.3-0.5,13.9-6.5c-2-4-5.6-3.1-8.9-2.8C13.9,30.1,3.6,30.4,15.2,36.2z"/>
	</g>
	<path id="p5_1_" class="st0" d="M59,24.7c-10.6,3.5-0.4-0.5-4-5.2c-1.2-1.9,1.3-3.6,0.4-5.7C48.2,19,53.6-4.7,43.9,21
		c-5.2,8.6,1.8-14.6-5.3-14c-4.6,1.4-1.9,7.7-5.6,9.5c-4.4-15.4-15.8-5.8-6.7,5.7c-10.7-10.3-19.8-2.5-6.7,7.3
		c-21.9-5.5-4.5,1.7-9.4,8c-0.9,2.4-2.2,0.2-3.3-0.3C1,39.4,11.4,48,12.3,52.3c3.5,4.4,10.3,3.5,11.4,10.2c5.1-0.5,2-13.6,9.6-9.7
		c1.9-0.2,2.4-1.3,2.8-2.6c2.2,3,5.4-2.4,6.2,3.2c5.3,9.6,9.9,0.8,2.8-4.8c2.4,0.3,3.7,5,6.9,1.6c0.9-2.2-6.8-8.2-2.8-8.7
		c10-3.5-0.8-4.9-5.5-6c-5.3,9.1-5.6,9.8-14.9,5.7c-0.4-5,4-10.5,1.7-14.7c1.6,1,4.8,1.8,3.9-1.3c2.7,2.9,7.6,4.2,9,8.8
		C47.2,36.7,60.9,28.3,59,24.7z M28.8,41.3C25.1,63.1,9.3,30.9,28.8,41.3L28.8,41.3z"/>
	<path id="p6_1_" class="st0" d="M61.9,41.2c-1.6-0.9-3.4-1.4-5.2-1.8c14.7,1.5,15.3-11.7,0.2-7.1c6.8,0.3,12-9.8,1.4-6.7
		c-13.5,6.7-18.4,2.6-15-12.5c-4.4-5.6-6.4,1.9-5.8,5.5c1.6,6.4-5.3,3.7-6,7.4C26,15.7-2,3.3,16.9,21.2c1.4,1.8,10.5,6.5,5.7,7.3
		c-1.9-1.2-10.2-2.4-6.5,1.1c-5.3,2.2-20-0.8-13.6,10.7c-0.1,1.4,2.6,1.7,1.3,3.1c-4.9,12.2,13.6,1.7,18.3,1.1
		C16.9,50.6,5,57.3,15.9,63.8c2,1.7,5.9-6.6,5.6-1.5c-2.7,16.4,11.3-8.9,13-13.2c-3.1,19.7,4.8,6.3,2.3-4.2
		c-5.5-5.2-9.5-10.9-5-17.9c24.9,9.5,0.8,10.5,7.6,28.5c1.4-20.7,5-5.3,8.6,4.7c3.8-1.5,0.1-4,0.9-5.9c-5.6-12.3,6.7,0.8,12.7,1.2
		c-2.8-2.5-4.4-6.4-7-8.7C64.9,53,76.9,51,61.9,41.2z M49.7,44.4c0.2-0.2,0.4,0.1,0.6,0.2C50.1,44.5,49.9,44.5,49.7,44.4z"/>
	<g id="p7">
		<path class="st0" d="M52.8,27.7c1.6-2.6,12-1,5.9-5.4c-2.5-0.1-4.9-2.1-7.9,0.1c1.2-1.8,2.4-2.9,1.6-4.6c-2.6-2.8-3.8,1.9-6.2,1.2
			c0.5-2.2,2.7-3.6,2-6c-6.4-6.1-8,10.1-13.4,12.2c-2,4.3,4.9,2.3,5.2,12.9c-2,0.7-3,2.2-3.4,4.1c-11.3-10.7-14.8,4.2-20.2-1.5
			c-6.6,0.2-12.5,9.5-0.4,3.5c-3,3.7,0.4,3.4,3.2,2.9c-2.6,1.3-10,3.3-2.7,5.6c5.2,0.6,8.3-3.3,12.9,1.3c3.9-2.1-0.7,6.4,3.4,6.6
			c3,0.6,2.8-3.4,3.8-4.9c-0.9,2.4,2.9,4.5,3.1,1.7c5.3,3.3,2.3-6.4,5.1-6.9c0.9-0.1,1.6-0.3,2.1-0.6c0.5,0.6,0.7,1.3,0.3,2.2
			c-2.3,5,8.3,10.6,4.3,3.5c-2.5-3.6,3-4.5,0.4-8.3c2.9-1.1,6.9,0.1,7.9-4.4c-2.5-3.9-6.4,0.1-9.4-1.6c1.4-2.6,4.4-2.1,6.2-3.7
			c-2.1-1.3-4.7-1.5-7-1c-1.8-0.5-4-0.1-4.9-1.8C44.5,30.2,51.2,31.2,52.8,27.7z"/>
		<path class="st0" d="M14.4,23.9c0.7,8,13.2,13.1,16.3,4.8c-0.4-2-1.7-5.4,1-6.1c5.4-1.2,3.5-13,0.2-5.5c-1.4,4.2-5.4,0.3-6.9,4.7
			c-2.6-1.7-4.1-5.6-8.3-3.7c-1.6,4.3,3.9,5.1,4.4,8.5C18.2,27,16.8,24.3,14.4,23.9z"/>
	</g>
	<g id="p8">
		<path class="st0" d="M32.6,19.4c-0.9,5.4,4.4,11.1,9.2,7.4c-4.6,11,10.8-2.1,12.2-6.4c0.2-2.7-5.3-0.6-7.7,1.5
			c3.5-4.8,5.1-12.9-2.3-5.2c1.3-14.1-4.2-2-6.1,4.5c-2.2-4.6,0.1-18-8.5-12.7c-1.7-2.4-4.4-0.1-4.1,2.4
			C25.8,13.9,29.3,26.7,32.6,19.4z"/>
		<path class="st0" d="M64.9,29.1c-4-2.3-26.7-0.7-15.4,4.3c-4.5,0.5-6.6,4.4-6.3,8c-7.3-5.2-0.7,10.7-20.4-4.7
			C43,30.1,2,17.7,19.6,30c-12.4,0-5.3,5.8,2.3,6.7c-8,0.3-10.3,10.8-0.5,7.6c-10.1,10.8-1.9,15.8,5.4,6.9
			c-2.1,4.2-2.8,11.5,1.9,9.6c1.8-5.8,1.6-11.4,7.5-9.2c-5.3,8.6,4.4,15.3,2.5,2.9c1.5,7.3,11.2,20.1,13.4,7
			c2.3-2.2,3.2-4.5,2.2-7.3c1.8-3.7-4.4-9.6-5-13.5c5.9,3.6,18.7,8.8,8.5-1.2c11.8,0.3,5.2-4.7-1.1-5.8C60.4,33.6,66.8,31,64.9,29.1
			z"/>
	</g>
	<g id="p9">
		<path class="st0" d="M35.3,41.6c-6-0.4-11.3-17.4-12.9-4.2c1.6,5.7-6.5,9.2-7.1,13.5c2.5,1.4,4.4,6.7,7.9,1.1
			c-1.2,12.2,2.8,1.9,7.1-1.9c-0.9,5.2-1.1,14.9,4,5.7c4.2,11.4,3.2-2.9,3.7-8C42.9,52.1,40.1,40.8,35.3,41.6z"/>
		<path class="st0" d="M55.6,35.7c0.7-0.6-4.4-1.1,0-1.8c2.5-0.7,1.7-4.8-1-4.8c-1-0.2-2.3,0.6-3.1-0.7c1.3-1,2.6-1.9,3.9-2.9
			c0.1-4.9-13,5.5-6.5-4c2.8-2.4-0.4-5.3-2.4-2.1c-5.4,5.2-3.7,3.2-5.7-2c-1.2,1.8-2.2,3.3-3.6,5.4c-0.9-4.8,0.9-9-1.7-12.9
			c-2.8,3.7-1.3,8.2-3.2,12c-8.1-8-5.1,1.8-14.5-2.2c-9-2.6,7.1,7.5,8.8,10.6c3.7,1.8,8-0.9,12.1,0C36.6,34.6,57.8,56,54.6,44.1
			c-6.2-8.5,0.5-1.6,4.1-5.7C58.5,36.4,56.5,36.7,55.6,35.7z"/>
	</g>
	<g id="pa">
		<path class="st0" d="M23.5,34.2c4.9-6.1-15.6-15.7-8.9-4.5C18.1,29.8,19.9,36.2,23.5,34.2z"/>
		<path class="st0" d="M28.1,16.2c-1.6,3.2,3.1,7.5-3.1,8.7C27.1,39.9,39.9,16.6,28.1,16.2z"/>
		<path class="st0" d="M25.2,42.8c-5.6-0.3-10.3,1-12.7,7.2C16.8,48.7,24.5,46.6,25.2,42.8z"/>
		<path class="st0" d="M15.1,37.8c3.3,1,6.6,4.5,9.8-0.2C21.8,36,15.5,31.3,15.1,37.8z"/>
		<path class="st0" d="M32.6,44.5c-1,5.5-0.4,10.3,5.5,13.5C37.4,53.6,36.3,45.7,32.6,44.5z"/>
		<path class="st0" d="M27.4,44.2c-2,2.9-7.5,8.5-1.1,9.7C27.8,50.8,31.7,47.9,27.4,44.2z"/>
		<path class="st0" d="M44.8,46.3c0.4,5.6,2.4,10.1,8.8,11.6C51.7,53.8,48.6,46.5,44.8,46.3z"/>
		<path class="st0" d="M62.8,36.9c-4.1-4.4-12.2,0.6-17.5-2.1c2.9-1.9,6.4-0.5,9.4-2c3.3-1.7,3.8-3.4,1.1-5.6
			c1.2-1.3,4.2-0.7,3.8-3.6c-0.4-0.9-3.3,2-1.9-1.3c0.3-0.8,0.9-1.7,0-2c-3.2,0.6-6.6,1.6-8.8,4.2c3.4-7.9-3.4-5.7-7.2-1.5
			c2.8-3.4,5.6-9.3,3.6-12.7c-2.1,0.5-4.2,2.1-6-0.5c-0.7,5.9-11.1,24.1,2.1,20.7c-3.7,3.9,1.8,8.3,5.4,9.3
			c-10.9,4.3,18,16.3,12.5,7.4c-1.8-2.4,0.5-1.4,1.4-1.6c0.7-3.3-3.6-4.3-6-4.5C57.1,40.6,61.9,39.5,62.8,36.9z"/>
		<path class="st0" d="M43.1,46.8c-4.2-4.3-4,0.5-1.9,3.9C45.2,51,42.7,48.2,43.1,46.8z"/>
	</g>
	<g id="pb">
		<path class="st0" d="M34.2,40.9c-2.6-0.8-4.4-2.8-6.3-4.6c-2.5-0.6-1-5-4.5-4.7c-0.8,0.6-1.4,1.4-1.7,2.2c-0.4-0.2-1-0.4-1.7-0.5
			c-3,1.6-12,2.1-7.5,6.9c1.8,0,6.6-1.8,8.9-3.6c0,0.1,0,0.1,0,0.2c1.5,5.8-6.5,9.3-7.1,13.5c2.5,1.4,4.4,6.7,7.9,1.1
			c-1.2,12.7,2.8,1.8,7.1-1.9c-0.9,5.2-1.1,14.9,4,5.7c4.2,11.4,3.2-2.9,3.7-8c0.7,0.8,1.2,1.2,1.6,1.7l0,0c0.6,4.4,1.9,9.1,5.1,9.9
			c1.6-2.1-1.7-9.2-4.1-13C39.2,43.3,36.7,41.3,34.2,40.9z"/>
		<path class="st0" d="M54.5,35.1c0.7-0.6-4.4-1.1,0-1.8c2.5-0.7,1.7-4.8-1-4.8c-1-0.2-2.3,0.6-3.1-0.7c2.6-0.9,6.1-5.9,1.1-3.9
			c-2,0.9-3.9,2-6,0.2c0.8-2,4.9-4.4,2.8-6.5c-3-0.9-4.3,4.4-7.5,4.5c-0.5-1.7,0.6-3.6-1.1-5.3c-1.2,1.8-2.2,3.3-3.6,5.4
			c-0.9-4.8,0.9-9-1.7-12.9c-2.8,3.7-1.3,8.2-3.2,12c-1.7-1.2-4.6-4.8-6.5-3.1c-3.8,5.5-7.7-2-11.7,0.7c5.9,3.2,10.3,12.1,17.1,11.3
			c2.4-1.8,5,0.2,7.5-0.5c-1.3,7.4,25.4,29.2,13.1,9.2C54.2,39.7,61.2,38.2,54.5,35.1z"/>
		<path class="st0" d="M24.1,30.5c-4.3-1.7-12.8-4.9-15.8-1.3C9.8,32.1,21.1,31.6,24.1,30.5z"/>
		<path class="st0" d="M42.3,46.4c2.7,2,7,10,9.4,3.9C50.3,47.5,40.4,38.8,42.3,46.4z"/>
	</g>
	<g id="pc">
		<path class="st0" d="M27.3,38.3c-3.4-3.6-0.2-7,0.8-10.7C26.6,17.8,8.3,7,20.6,24.5c-2.9,0.7-12.4-6.4-9.8,0.1
			c1.7,3.5,6.2,2.9,9,6.2c-3.5,0.3-4.7,1.5-1.3,3.7c-11.4-0.3-16,5.2-1.9,6.7C-2.8,53.4,42.3,50.2,27.3,38.3z"/>
		<path class="st0" d="M60.4,31.8c-5.3,1-19.3-2.8-18.9,4.2c-1.5,7.7,9.7,9.5,15.2,10.7c9.1-6.3-0.1-7.7-6.4-10.7
			c3.8,0.1,6.3-3.2,9.8-1.5C62.1,35.2,62.7,31.9,60.4,31.8z"/>
		<path class="st0" d="M47.1,25c1.6-3,8.8-8.5,2.4-9.9C46.9,16.9,39.9,28.1,47.1,25z"/>
		<path class="st0" d="M45.2,29.6c4.5-1,13.4-3.1,13.8-7.8C56.2,20.3,47.1,27,45.2,29.6z"/>
		<path class="st0" d="M37.5,26.5c2.6-3.8,7.7-11.4,4.8-15.1C39.2,12.2,37.1,23.3,37.5,26.5z"/>
		<path class="st0" d="M35.1,25.9c0.9-4.5,2.5-13.5-1.7-15.8C30.9,12.1,33.5,23.1,35.1,25.9z"/>
		<path class="st0" d="M31.2,25c-0.6-4.6-2-13.6-6.7-14.4C22.8,13.2,28.7,22.9,31.2,25z"/>
		<path class="st0" d="M32.4,60.5c1.3-4.4,3.9-13.2,0-15.9C29.7,46.3,31.1,57.5,32.4,60.5z"/>
		<path class="st0" d="M46.5,43.7c-3.1,4.3-6.2-4-7.7-0.8c0,5.7-2.6-1.4-3.2,1.2c-1.7,8.8,9.3,26,4.3,5.4c2.7,0.7,3.1,2.9,4.4,4.2
			c2.8,4,5.2-1.4,3.4-3.7C54.3,58.4,56.8,48.4,46.5,43.7z"/>
	</g>
	<g id="pd">
		<path class="st0" d="M32.3,41.5C23.5,27.3,42,32.9,37,18.4c-0.1-1.4-2.6,0.9-3.1-1.5c-3.4-3.8-6.5,4.1-4,6.5
			c-1.7-3.3-7.6-5.7-8.9-0.6c-4.6-3.2-6.6-4.5-5.6,2.8c-16.5-0.4,5.4,6,9.4,7.7c-4.2-2-19.5,8.6-7.9,7.9c-2.4,1.3-7,3.3-2.8,6.4
			c5.2,2.4,6.2-4.9,12.3-6c-14.9,9.2-3.4,18.7,4.4,6.1C36.8,72.6,51.5,41.1,32.3,41.5z M20.6,38.9c0.7-0.5,1.5-1,2.3-1.5
			C22.2,38,21.4,38.4,20.6,38.9z"/>
		<path class="st0" d="M53.3,35.4c3.7-1,6.5,0.3,8-3.7c-4.1,1.8-5.8-2.8-9.3-2.3c-8.9-1.8-6.6-1.9-1.5-8.1c3.4-4.7-4.4-1.1-6-3.7
			c-4.3,0.7-3.8,5-5.7,7.5c-5.5,4.5,5.6,8.2,2,14.2c-0.9,11.9,26.3,24.5,6.9,3.8C61.7,48.9,71.5,43.4,53.3,35.4z"/>
	</g>
</g>
<g id="miolo1">
	<path id="m10_1_" class="st1" d="M26.4,35c1.4-0.9,1.3-2.6,0.8-3.6c-1.1-2.4,0.7-2.3,2-2.9c4.3-2.9,8.6-3.2,12.8,0.3V29
		c0.6,0.3,1.2,0.5,1.7,1c0.7,1.1,0.8,2.5,1.2,3.7c0.1,1.7,0.7,3.3,0.9,5c0,0.4-0.2,0.8-0.4,1.2c-1.5-0.8-1.5,0.5-1.9,1.3
		c-0.7,0.9-1.5,1.7-2.5,2.2c-0.9,0.4-1.8,0.4-2.8,0.1c-1.4-0.5-2.3-1.6-3.1-2.8c-1-1.8,0.4-2.7,1.4-3.7c1.3-1.3,1.1-2.6,0-3.9
		c-0.9-1-2-1-3.1-0.1c-1.3,1.1-0.9,2.5,0.1,3.4c1.4,1.3,0.6,3.2,1.6,4.5c0.4,1.8-0.7,2.6-2.1,3.3c-1.5,0.3-2.9-0.1-4.1-1
		c-1.1-1.4-2-3.1-3.3-4.3c-0.2-0.4-0.4-0.9-0.5-1.4C25.2,36.5,25.4,35.6,26.4,35z"/>
	<path id="m11_1_" class="st1" d="M36.2,45.1c-0.3,0-0.6,0-0.9,0.1c-0.2-0.4-0.5-1.2-0.7-1.2c-6.9,1.1-5.9-4.8-7.5-8.4
		c-0.1-0.3-0.4-0.5-0.6-0.8c0-1.5,0.9-2.3,2.2-2.9c1.8,0,0.9-1,0.6-1.7c0.8-1.3,1.5-2.7,3.2-3.1c1.3-0.3,2.5-0.2,3.8,0.2
		c2.7,1.8,7,1.2,7.8,5.5c0.3,0.6,0.6,1.3,0.8,1.9c0.2,0.7,0.2,1.4,0,2c-0.3,0.7-1,0.9-1.5,1.4c-0.9,2.6-2.7,4.4-5,5.8
		C37.6,44,36.7,44.2,36.2,45.1z"/>
	<path id="m12_2_" class="st1" d="M27.4,33.1c0.1-0.9,0.2-1.8,0.3-2.7c2.7-1.1,5.4-2.3,8.1-3.4c1-0.6,2.1-0.4,3.2-0.3
		c0.7,0.2,1.2,0.6,1.7,1.1c1.9,2.1,3.2,4.4,3.9,7.2c0.1,0.7,0.2,1.4,0.1,2.1c-0.1,0.7-0.4,1.3-0.7,1.9c-0.2,0.4-0.4,0.8-0.7,1.2
		c-0.7,1.4-1.9,2.4-3.1,3.4c-0.8,0.7-1.5,1.5-2.4,2.1c-1.2,0.6-2.5,0.4-3.8,0.2c-0.4,0-0.8-0.2-1.2-0.3c-0.6-0.4-0.9-0.9-0.9-1.6
		c-4.3-0.1-4.1-4.2-5.8-6.6C25.5,35.6,27.5,34.6,27.4,33.1z"/>
	<path id="m13_1_" class="st1" d="M31,29.9c0.7-0.7,1.4-1.4,2.1-2.1c-0.3-0.3-0.4-0.5-0.2-0.7C33,27,33.2,27,33.4,27
		c2.7,0.6,5.7,0.5,7.9,2.8c0.7,0.7,1.4,1.4,2.1,2c-0.1,0.3-0.1,0.7-0.2,1c1.4,2.2,0.6,4.5,0.7,6.8c-0.4,1.2-1.2,2.1-2,3.1
		C39.3,44.8,36.4,46,33,45c-1.6-1-3.3-1.8-4.5-3.4c-1-1.4-0.6-2.6,0.5-3.8c-0.8-1.7,0-3.4,0-5.2c0.4-1,0.6-2.1,2-2.1
		c0.1,0,0.3-0.2,0.3-0.3S31.1,30,31,29.9z"/>
	<path id="m14_2_" class="st1" d="M35.6,43.9c-6.3-0.5-8.9-3-9-8.6c-0.1-3.1,4.5-6.8,8.9-7.2c6.5,3.1,7.9,7.7,4.5,15.2
		C38.7,44.7,37.3,45.1,35.6,43.9z"/>
	<path id="m15_2_" class="st1" d="M43.4,39c-0.8,0.2-1.2,0.9-1.2,1.7c-1.2,2.1-2.9,3.5-5.4,3.6c-8.1,0.3-11-4.6-7.3-12.3
		c2.2-4.2,5.7-5.9,9.3-4.5C43.5,29.2,44.8,32.6,43.4,39z"/>
	<path id="m16_2_" class="st1" d="M38.3,44.4c-5,0.8-6.3-4.5-9.9-6c-1.7-2.3-0.9-4.6-0.1-6.9c-0.6-1-1.2-1.9-1.9-2.9
		c3.9-5.1,8.3-5.2,13-0.1c0.2,0.3,0.4,0.3,0.7,0.3c2.6,0.2,3.3,2.3,4.2,4.3C44.9,40.3,43.6,42.8,38.3,44.4z"/>
	<path id="m17_2_" class="st1" d="M28,31.1c1.6-0.7,3.5-0.9,4.1-3c0.6-0.1,1.2-0.1,1.7-0.2c2.4-0.4,4,1.2,6,2
		c2.5,4.2,1.5,10.4-2,13.1c-3.8-0.3-8.4,0.8-9-5.1C27.9,35.8,27.7,33.5,28,31.1z"/>
</g>
<g id="miolo2">
	<path id="m20_1_" class="st2" d="M39.3,41.1c-3.1-0.4-5.3-1.9-6.2-5c-1.4-2.2-1.4-4.3,0.3-6.4c0.8-0.6,1.9-0.5,2.8-0.8
		c3.3-1.1,5.9-0.2,7.5,2.8s0.7,5.7-1.9,7.9C41.1,40.3,40.3,40.9,39.3,41.1z"/>
	<path id="m21_1_" class="st2" d="M38.5,40.4c-2.2,1.1-4.1,0.3-5.8-1.2c1.2-2.5-1.7-3.8-1.8-5.9c0.5-0.3,1.1-0.6,1.6-0.8
		c2.8-4.8,4.4-5.2,9.1-2.4c0.6,1.3,0.8,2.9,1.8,4.1c0.5,1,0.8,2.1,0.8,3.2C43.6,41,41.8,42.1,38.5,40.4z"/>
	<path id="m22_1_" class="st2" d="M36.4,41.6c-2.2,1.1-4.1,0.3-5.8-1.2c1.2-2.5-1.7-3.8-1.8-5.9c0.5-0.3,1.1-0.6,1.6-0.8
		c2.8-4.8,4.4-5.2,9.1-2.4c0.6,1.3,0.8,2.9,1.8,4.1c0.5,1,0.8,2.1,0.8,3.2C41.5,42.2,39.7,43.3,36.4,41.6z"/>
	<path id="m23_1_" class="st2" d="M35.1,31.1c0.8,0,1.6,0,2.5,0.1c2.3,0.2,6-0.2,5.2,3.2c-0.6,2.6-0.2,8.2-6.1,6.4
		c-1.6-0.5-2.9,0.5-4.3,0.3c-0.3-0.6-0.5-1.3-0.8-1.9c-1.9-2.8-2-5.5,0.8-7.8C33.3,31.3,34.2,31.2,35.1,31.1z"/>
	<path id="m24_1_" class="st2" d="M35.6,41.8c-1.4-0.9-1.7-2.6-3-3.7c-2.1-1.7-2.2-3.8,0.4-5.6c2.3-1.5,4.2-1.7,5.5,1.1
		c1,2.1,2.8,4.6-1.2,5.7C35.8,39.7,35.6,40.7,35.6,41.8C35.5,41.9,35.6,41.8,35.6,41.8z"/>
	<path id="m25" class="st2" d="M37.6,32.3c0.3-0.1,0.5,0,0.8,0.2c1.5,1.4,1.9,3.2,1.6,5.2c-0.1,0.5-0.3,0.9-0.6,1.3
		c-1.2,2.4-2.3,4.9-5.7,4.4c-2.9-0.4-4.3-2.2-4.4-5c0.1-0.8,0.5-1.5,1-2.1l0.3-0.1C32.2,33.4,35.5,33.8,37.6,32.3z"/>
	<path id="m26" class="st2" d="M39.8,36.6c-1.6,1.3-3.1,2.7-5.2,3.3c-0.3,0-0.6,0.1-0.9,0.2L33.3,40l-0.4,0.1
		C31,39.8,31.2,38.3,31,37c1.4-1.3-0.1-4.3,2.9-4.6c3-0.4,4.4,1.6,5.8,3.7C39.8,36.2,39.8,36.4,39.8,36.6z"/>
	<path id="m27" class="st2" d="M43.1,34.3c-0.5,1.6-3.3,0.2-3.4,3c-0.1,2-2.2,3.1-4.6,2.3c-2-0.7-1.8-2.5-1.5-3.6
		c0.6-2,1.9-4.4,4.5-3.3c1.9,0.8,3.4,1,5-0.2C43.8,33.1,43.7,33.7,43.1,34.3z"/>
	<path id="m28" class="st2" d="M39.4,37c-1.6,0.2-2.4,2.2-4,2.4c-0.6,0.1-3.2,0-2.9-2.4c0.3-2,1.5-2.8,3.4-2.7
		C37.5,34.4,38.9,34.8,39.4,37z"/>
	<path id="m29" class="st2" d="M35.7,33.2c1,2.1-0.3,3.1-2,3.6c-0.7,0.2-1-0.7-1-1.4C32.5,33.1,34.2,33.3,35.7,33.2L35.7,33.2z"/>
</g>
<g id="guides">
</g>
</svg>
