<?xml version="1.0" encoding="utf-8"?>
<!-- <svg version="1.1" xmlns="http://www.w3.org/2000/svg" xmlns:xlink="http://www.w3.org/1999/xlink" x="0px" y="0px" viewBox="0 0 70 70" style="enable-background:new 0 0 70 70;" xml:space="preserve"> -->
<svg xmlns="http://www.w3.org/2000/svg" xmlns:xlink="http://www.w3.org/1999/xlink" version="1.1"
width="1200" height="1200" viewBox="0 0 140 140">
<style type="text/css">
<!-- .bl{mix-blend-mode:multiply;} -->
.bl{mix-blend-mode:screen;}
.sh{filter:drop-shadow(1px 1px 2px #00000080);}
.sh2{filter:drop-shadow(1px 1px 1px #00000080);}

<!-- Palette 1: ROSA -->
<!-- .bg{fill:#020001;}
.p0{fill:#90325B;}
.p1{fill:#D03E80;}
.p2{fill:#F77BAF;}
.p3{fill:#ECA7CB;}
.p4{fill:#FBDDEA;}
.m0{fill:#732C2C;}
.m1{fill:#A52135;}
.m2{fill:#E9583E;}
.m3{fill:#FBB451;} -->

<!-- Palette 2: ROXA -->
<!-- .bg{fill:#020001;}
.p0{fill:#540967;}
.p1{fill:#7724AE;}
.p2{fill:#BA39BC;}
.p3{fill:#E26DFF;}
.p4{fill:#DF92FD;}
.m0{fill:#3b2628;}
.m1{fill:#9b622a;}
.m2{fill:#e0aa42;}
.m3{fill:#f3cb45;} -->

<!-- Palette 3: AZULO -->
<!-- .bg{fill:#000002;}
.p0{fill:#313B73;}
.p1{fill:#485799;}
.p2{fill:#707DBE;}
.p3{fill:#ACB9F1;}
.p4{fill:#C0E8FF;}
.m0{fill:#3b2628;}
.m1{fill:#783C1A;}
.m2{fill:#BB873E;}
.m3{fill:#E4AF4D;} -->

<!-- Palette 4: AZUL -->
.bg{fill:#000002;}
.p0{fill:#3C40BB;}
.p1{fill:#4D5CFC;}
.p2{fill:#2B00FF;}
.p3{fill:#4E69FF;}
.p4{fill:#AC9AFF;}
.m0{fill:#3b2628;}
.m1{fill:#9B442A;}
.m2{fill:#E08442;}
.m3{fill:#F3EA45;}

<!-- Palette 5: AMARELO -->
<!-- .bg{fill:#020200;}
.p0{fill:#AD842B;}
.p1{fill:#F3C81B;}
.p2{fill:#F0DC01;}
.p3{fill:#FFF984;}
.p4{fill:#FFFEE4;}
.m0{fill:#3b2628;}
.m1{fill:#9B442A;}
.m2{fill:#E08442;}
.m3{fill:#FBFFC9;} -->

<!-- Palette 6: NANANJA -->
<!-- .bg{fill:#020200;}
.p0{fill:#6a0e03;}
.p1{fill:#CA2E0F;}
.p2{fill:#FF2A00;}
.p3{fill:#FF892E;}
.p4{fill:#FFB339;}
.m0{fill:#72402F;}
.m1{fill:#CD882F;}
.m2{fill:#FCBB42;}
.m3{fill:#FDF59A;} -->




.r{transform-origin:center;transform-box:fill-box;}
.r1{transform:rotate(0deg);}
.r2{transform:rotate(30deg);}
.r3{transform:rotate(180deg);}
.r4{transform:rotate(270deg);}
</style>


<defs>

<g id="p1"><path d="M22,34c3.4-6.1-2.7-12.3-7.7-15.1c-1.6,1.1-8.2,4.5-10.1,5.1c-2.6,5.2,7.4,1.5,6.6,7.3c0.5,6-7.9,2.7-8.3,6.9 C7.6,39.6,18.6,40.1,22,34z"/><path d="M69.1,28.1c-1.3-4.1-6.5-1.9-9.6-2.4c7.8-11.4-7.1-8.2-11.1-1.5C49.9,19.7,53.9,0,44.2,7 c-0.2,2.1-4-9.2-6.7,0.6c-2,19.8-0.9-7-9.8-5.9c-5.2,3.7-0.5,11.4-0.7,17c-13.3-10,3.2,12.1-4.2,16.5c4.6,5.6-0.6,5-3.7,9.4 c3.2,1.3,6.1-3.4,8.6-0.9c1.4,2.3-1.8,4-3.4,5.2c-0.2-1.4-0.7-3-2.2-2.8c-5.6,0.4-18.6,5.2-6.2,4.7c1.5,2.6-6.3,5.7-1.9,8.4 c3,1.8,7.5-7.4,9.1-2.6c6.9-5.3,1.4,4.8,4,8.1c1.9,1.7,2.2-1.6,3.9-1.7c2.3-0.1,1.3-2.3,1-3.4c-1.5-2.8,1.2-9-3.6-8.7 c0.2-0.6,0.2-1.4,0.6-1.8c6.5-8.7,3.7,8.1,4.2,11.9c5-1.3-1.1-12.7,6.1-15.8c-2.5-3.3-9.2-1.1-10-6.5C28.9,28.3,44.5,24.9,44.3,37 C43,45.3,71.4,34.9,69.1,28.1z"/></g>
<g id="p2"><path d="M28,41.3c-1.7-1-0.9-1.6,0-2.9c1-3.6-5.5,0-6.9-1.7c4.2,0.8,6.8-4.4,3-6.8c2.6,2.2,11.5,1.4,8.5-3.7 c9.3,3,6.1-14,4.1-18.9C34.4,2,31.1,8.3,28,5.8c-13.1,0.1-5.5,8.3-1.3,15.3c-4.9-0.5-7.3-5.2-11.5-6.1c-3.5,2.1-1.2,4.7,0,7.6 c-8.7-4.7-9,3.4-1.1,4.8c-3.6,0.8-6.1-1.6-9.4-2c-2.7,5.5-2.4,5.9,2.7,7.3c0.3,2.2-1.9,2-2.7,3c-10.9,3.5,5.6,9.2,9.6,9.1 c-7.9,3.7-7.3,8.5,0.8,10.8c0.5,2.6,2.4,1.2,3.5,0.9C22.3,55.4,30.8,45.2,28,41.3z M21.1,42.6c-0.9,1-2.1,1.2-3.3,1.4 c1.6-0.6,3.1-1.5,4.6-2.7C22.6,42.1,21.5,42.1,21.1,42.6z"/><path d="M41.1,51.1c2.9-15.9-17.1,4.6-16.4,10.1c0.5,8.6,8.6,0,9.3-4.3c-0.8,3.7,4.7,8.5,7.5,4.7 C42.2,58,38.9,54.8,41.1,51.1z"/><path d="M57.8,52.7c-1.1-2.1,1.8-4.9-1-6.7c-4-0.6-9.1-9.2-12.7-3.3c2.8,3.8,1.7,9.2,6.3,12 C55.3,58.4,64.8,62.7,57.8,52.7z"/><path d="M60.2,36.8c-3.8-2.1-9.3-2.3-13,0.2C47.1,42.4,64.1,41.6,60.2,36.8z"/><path d="M41.2,5.8c1.4,6.5-6.2,19,0.7,21.8C41.7,21.2,48,9.5,41.2,5.8z"/><path d="M46.9,29.4c10.8-2-2.4-18.6-2.5-6.2C45.6,25.2,42.3,29,46.9,29.4z"/><path d="M46.8,33.8c1.1,3.7,16.4-3.9,8.9-4.6C52.9,29.8,46.2,29.9,46.8,33.8z"/></g>
<g id="p3"><path d="M46.4,25.8c2.2-3,6.3-17.7-1.2-11.9c-5.1-4.8-4.4,3.3-7.3,3.4c-0.7,0-0.1,2.3-2.2,2.5 c1.6-9.9-12.5-18.9-6.1-3.5c-1.3-4.1-6-5.7-9.6-7.1c-4.9,4.3,0.7,7.9,0.6,11.9c-9.6-10.3-14.3,1.8-4.8,6c-2.1-0.5-4.2-2-6.3-2.8 C2.9,21.9,4,30,10.2,30.3c-9.7-0.2-6.7,11.2,2.2,8.2c-1.8,0.4-4.3,0.6-4.2,2.9c2,5.1,12,1.5,15.8-0.3c-2.7,2.7-6.5,4.4-8.6,8.6 c2.4-0.7,4-1.2,6-1.8c-1.7,12.7,18.8-9.7,5.1-8.7c4.1-3.3-2.5-7.3,1.8-9.2C34,26.8,43.3,31.2,46.4,25.8z"/><path d="M37.3,43.3c-6.6-1.2-2.5,6.9-2.9,10.4c0.1,1.9-1,4.8,2.9,3.7C38.4,52.7,37.1,48,37.3,43.3z"/><path d="M64.1,32.3c-5.4-1.8-9,2.7-14.9,0.5c2.7-2.6,9.8-1,10.4-5.3c-4.4-2.7-11.2,2.9-16,4.1c-0.3,1.3,0.3,2,1.6,2.2 c-1.6,0.7-1.7,2.3-1.7,3.8c0.8,0.2,1.6,0.4,2.3,0.6c-1.2,0.2-2.3,0.9-3.5,1.2c1.2,3,6.8,3.4,8.6,6.5c-2.6-0.4-5.2-1.2-7.5-2.5 c-2,1.7-0.8,3.8-0.9,5.9c0,4.7,4.3,6.1,6.7,9c5.9,2.8,4.7-5.1,1.3-7.2c5.9,4.9,13.5,0.3,3.6-3.9c6.9,1.2,8.3-7.1,1.1-7.9 c1.6-0.1,3.2-0.3,4.8-0.7c1.8-1.4,6.3,2.2,6-3.2C66.3,33.8,65.9,33.2,64.1,32.3z"/></g>
<g id="p4"><path d="M8.6,26.7c2.6,1.3,4.7,2.5,7.5,1.3c2.3-0.2,5.4,3.7,6.5,0.2c0.6-1.9-3.4-3.6-6.1-4.3c1.2-2,4.8,0.2,4.9-1.8 c0.1-2.1-0.2-2.5,1.6-1.1c4.5,1,3.3,7.5,8.3,7.3c5.9,5.8,9.8,2.2,10.5-4.7c2,17.3,7.6-2.2,7.7-9.1c0-0.2,0.1-0.7,0.1-1 c-0.4-0.9-1.5-1.6-0.8-2.8c-2.8,0-8.1-0.7-7.6,3.8c-13.4-17.1-9.4,16.1-17.9-0.4c-3.3-2.3-2.8-1.4-6.6,0.5 c-2.2,1.1-5.6,3.7-8.9,1.4c-0.9,4,2.4,4,4.7,4.9C19.8,25.6-0.5,20,8.6,26.7z M37.4,19.7c-2.1-0.7-0.6-3.2-0.3-4.8 C37.9,16.5,37.8,18.1,37.4,19.7z"/><path d="M7.3,33.1c4.4-0.5,12.4,2.3,15.1-1.1C19.9,28.2,0.3,29.4,7.3,33.1z"/><path d="M22.3,41.2c7.3-11-23.6-3.3-14.9,3.4c3.1-0.3,7.2-0.3,3.8,3.6C6.7,61.8,18.2,43.9,22.3,41.2z"/><path d="M61.1,35.3c-2.2-2.4-6.3-0.2-9.8-0.4c11.8-10.4,0.3-13.2-4.1-1.2c1.2,9.9-2.8,8.2-6.4,11.3 c-2.8-0.8-4.6-5.3-7.3-3.1c-4.3,3.5-5.1-3.7-9.7,1.6C20.5,48.8,14,54.2,14,60c2.7,4,7-5.2,20.6-3.3c-1.8,10,8-3.1,8.9-6.3 c1,4,7.4,4.7,6.2-0.3c1.5,11.5,10.6-1.6,3.3-6.1C49.3,36.6,60.8,40.1,61.1,35.3z M49.3,49.9c-0.6,0.3,0.2-0.9,0.3-0.1 C49.5,49.8,49.4,49.9,49.3,49.9z"/></g>
<g id="p5"><path d="M59.6,38c-2.8-2.4-6.6-2.2-10.3-3.5c6.9-3.6,16.5-5.7,3.2-6.9c11.9-6.3,0.7-5.3-5.1-2.6 c6.6-3.9,1.7-17.2-3.8-9.9c1.3-5-3-3.3-4.2-6.6c-4.6-0.5-2.3,4.1-4.6,6.2C26,0.9,25.1,24,32.3,29c7.6-1.2,7,7.6,8.5,13.4 c-2.1-2.2-5.6,0.2-5.8,2.7c-1.9-1.9-4.5-5-7.6-2.9c-1.2-1.8-0.2-5-3.4-5.7c-16.7-4.5-28.4,15.3-5,6.2c-8.3,1.6-10.6,10.5-3.3,7.7 c1.4,0.1,1.9-2.5,3.8-2.1c4.1,0.6,3.5-5,7.3-5.6c-1.5,1.5-2.5,3.2-0.2,4.8c3,1.9,0,5,3,7.2c0.1,13.4,7.9,7.7,7.2-1.5 c2.5,3.2,7.4,15.9,7.3,4c4.4,3.6,4.2-0.6,2.5-4c1.5-1,2.2,0.6,2.8,1.2c4.7,4.9,13.5-9.3,2.3-12.4C45.1,37.9,67.4,43.8,59.6,38z M45.6,48.6c1.4,1.3,0.6,1.8,0,2.5c0-1.1-0.2-2.1-0.5-3C45.2,48.2,45.4,48.4,45.6,48.6z"/><path d="M15.4,36c5.6-0.9,12.3-0.5,13.9-6.5c-2-4-5.6-3.1-8.9-2.8C14.1,29.9,3.8,30.2,15.4,36z"/></g>
<path id="p6" d="M61.2,24.6c-10.6,3.5-0.4-0.5-4-5.2c-1.2-1.9,1.3-3.6,0.4-5.7c-7.2,5.2-1.8-18.5-11.5,7.2 c-5.2,8.6,1.8-14.6-5.3-14c-4.6,1.4-1.9,7.7-5.6,9.5c-4.4-15.4-15.8-5.8-6.7,5.7c-10.7-10.3-19.8-2.5-6.7,7.3 c-21.9-5.5-4.5,1.7-9.4,8c-0.9,2.4-2.2,0.2-3.3-0.3c-5.9,2.2,4.5,10.8,5.4,15.1c3.5,4.4,10.3,3.5,11.4,10.2c5.1-0.5,2-13.6,9.6-9.7 c1.9-0.2,2.4-1.3,2.8-2.6c2.2,3,5.4-2.4,6.2,3.2c5.3,9.6,9.9,0.8,2.8-4.8c2.4,0.3,3.7,5,6.9,1.6c0.9-2.2-6.8-8.2-2.8-8.7 c10-3.5-0.8-4.9-5.5-6c-5.3,9.1-5.6,9.8-14.9,5.7c-0.4-5,4-10.5,1.7-14.7c1.6,1,4.8,1.8,3.9-1.3c2.7,2.9,7.6,4.2,9,8.8 C49.4,36.6,63.1,28.2,61.2,24.6z M31,41.2C27.3,63,11.5,30.8,31,41.2C31,41.2,31,41.2,31,41.2z"/>
<path id="p7" d="M62.1,41c-1.6-0.9-3.4-1.4-5.2-1.8c14.7,1.5,15.3-11.7,0.2-7.1c6.8,0.3,12-9.8,1.4-6.7 C45,32.1,40.1,28,43.5,12.9c-4.4-5.6-6.4,1.9-5.8,5.5c1.6,6.4-5.3,3.7-6,7.4C26.2,15.5-1.8,3.1,17.1,21c1.4,1.8,10.5,6.5,5.7,7.3 c-1.9-1.2-10.2-2.4-6.5,1.1c-5.3,2.2-20-0.8-13.6,10.7c-0.1,1.4,2.6,1.7,1.3,3.1c-4.9,12.2,13.6,1.7,18.3,1.1 c-5.2,6.1-17.1,12.8-6.2,19.3c2,1.7,5.9-6.6,5.6-1.5c-2.7,16.4,11.3-8.9,13-13.2c-3.1,19.7,4.8,6.3,2.3-4.2 c-5.5-5.2-9.5-10.9-5-17.9c24.9,9.5,0.8,10.5,7.6,28.5C41,34.6,44.6,50,48.2,60c3.8-1.5,0.1-4,0.9-5.9c-5.6-12.3,6.7,0.8,12.7,1.2 c-2.8-2.5-4.4-6.4-7-8.7C65.1,52.8,77.1,50.8,62.1,41z M49.9,44.2c0.2-0.2,0.4,0.1,0.6,0.2C50.3,44.3,50.1,44.3,49.9,44.2z"/>
<g id="p8"><path d="M58.9,22.1C56.4,22,54,20,51,22.2c1.2-1.8,2.4-2.9,1.6-4.6c-2.6-2.8-3.8,1.9-6.2,1.2c0.5-2.2,2.7-3.6,2-6 c-6.4-6.1-8,10.1-13.4,12.2c-2,4.3,4.9,2.3,5.2,12.9c-2,0.7-3,2.2-3.4,4.1C25.5,31.3,22,46.2,16.6,40.5C10,40.7,4.1,50,16.2,44 c-3,3.7,0.4,3.4,3.2,2.9c-2.6,1.3-10,3.3-2.7,5.6c5.2,0.6,8.3-3.3,12.9,1.3c3.9-2.1-0.7,6.4,3.4,6.6c3,0.6,2.8-3.4,3.8-4.9 c-0.9,2.4,2.9,4.5,3.1,1.7c5.3,3.3,2.3-6.4,5.1-6.9c4-0.5,3.3-2.9,3.2-5.4c-0.5-2.9,3.8-4.2,3.4-7.4c-1.7-2.5-5.6-0.7-6.8-3.1 c-0.1-4.4,6.6-3.4,8.2-6.9C54.6,24.9,65,26.5,58.9,22.1z"/><path d="M14.6,23.7c0.7,8,13.2,13.1,16.3,4.8c-0.4-2-1.7-5.4,1-6.1c5.4-1.2,3.5-13,0.2-5.5c-1.4,4.2-5.4,0.3-6.9,4.7 c-2.6-1.7-4.1-5.6-8.3-3.7c-1.6,4.3,3.9,5.1,4.4,8.5C18.4,26.8,17,24.1,14.6,23.7z"/></g>
<g id="p9"><path d="M32.8,19.2c-0.9,5.4,4.4,11.1,9.2,7.4c-4.6,11,10.8-2.1,12.2-6.4c0.3-3.2-7.8,0.4-8.7,2.7 c4.1-4.4,6.8-14.8-1.3-6.4c1.3-14.1-4.2-2-6.1,4.5c-2.2-4.6,0.1-18-8.5-12.7c-1.7-2.4-4.4-0.1-4.1,2.4 C26,13.7,29.5,26.5,32.8,19.2z"/><path d="M52.9,50.8C30.8,25.4,48,56,23.1,36.5c20.2-6.6-20.8-19-3.2-6.7c-12.4,0-5.3,5.8,2.3,6.7 c-8,0.3-10.3,10.8-0.5,7.6c-10.9,11.6-0.5,16.5,7,4.6c-3.1,2.6-5.6,14.2,0.3,11.9c1.8-5.8,1.6-11.4,7.5-9.2c-5.4,8.8,4.9,15.6,2.3,1.9c0.8,7.1,11.3,21.6,13.6,8C55.5,58.3,56.1,55.3,52.9,50.8z"/></g>
<g id="pa"><path d="M35.5,41.4c-6-0.4-11.3-17.4-12.9-4.2c1.6,5.7-6.5,9.2-7.1,13.5c2.5,1.4,4.4,6.7,7.9,1.1 c-1.2,12.2,2.8,1.9,7.1-1.9c-0.9,5.2-1.1,14.9,4,5.7c4.2,11.4,3.2-2.9,3.7-8C43.1,51.9,40.3,40.6,35.5,41.4z"/><path d="M55.8,35.5c0.7-0.6-4.4-1.1,0-1.8c2.5-0.7,1.7-4.8-1-4.8c-1-0.2-2.3,0.6-3.1-0.7c1.3-1,2.6-1.9,3.9-2.9 c0.1-4.9-13,5.5-6.5-4c2.8-2.4-0.4-5.3-2.4-2.1c-5.4,5.2-3.7,3.2-5.7-2c-1.2,1.8-2.2,3.3-3.6,5.4c-0.9-4.8,0.9-9-1.7-12.9 c-2.8,3.7-1.3,8.2-3.2,12c-8.1-8-5.1,1.8-14.5-2.2c-9-2.6,7.1,7.5,8.8,10.6c3.7,1.8,8-0.9,12.1,0c-2.1,4.3,19.1,25.7,15.9,13.8 c-6.2-8.5,0.5-1.6,4.1-5.7C58.7,36.2,56.7,36.5,55.8,35.5z"/></g>
<g id="pb"><path d="M14.8,29.5c3.5,0.1,5.3,6.5,8.9,4.5C28.6,27.9,8.1,18.3,14.8,29.5z"/><path d="M28.3,16c-1.6,3.2,3.1,7.5-3.1,8.7C27.3,39.7,40.1,16.4,28.3,16z"/><path d="M12.7,49.8c4.3-1.3,12-3.4,12.7-7.2C19.8,42.3,15.1,43.6,12.7,49.8z"/><path d="M15.3,37.6c3.3,1,6.6,4.5,9.8-0.2C22,35.8,15.7,31.1,15.3,37.6z"/><path d="M63,36.7c-4.1-4.4-12.2,0.6-17.5-2.1c2.9-1.9,6.4-0.5,9.4-2c3.3-1.7,3.8-3.4,1.1-5.6c1.2-1.3,4.2-0.7,3.8-3.6 c-0.4-0.9-3.3,2-1.9-1.3c0.3-0.8,0.9-1.7,0-2c-3.2,0.6-6.6,1.6-8.8,4.2c3.5-8.3-4-5.5-7.7-0.9c2.9-3.2,6.2-9.7,4.1-13.3 c-2.1,0.5-4.2,2.1-6-0.5c-0.7,5.9-11.1,24.1,2.1,20.7c-3.7,3.9,1.8,8.3,5.4,9.3C36.1,43.9,65,55.9,59.5,47 c-1.8-2.4,0.5-1.4,1.4-1.6c0.7-3.3-3.6-4.3-6-4.5C57.3,40.4,62.1,39.3,63,36.7z"/><path d="M43.3,46.6c-4.2-4.3-4,0.5-1.9,3.9C45.4,50.8,42.9,48,43.3,46.6z"/></g>
<g id="pc"><path d="M34.4,40.7c-2.6-0.8-4.4-2.8-6.3-4.6c-2.5-0.6-1-5-4.5-4.7c-1.7,1.3-2.4,3.2-2.1,5.1C23,42.3,15,45.8,14.4,50 c2.5,1.4,4.4,6.7,7.9,1.1c-1.2,12.7,2.8,1.8,7.1-1.9c-0.9,5.2-1.1,14.9,4,5.7c4.2,11.4,3.2-2.9,3.7-8c0.7,0.8,1.2,1.2,1.6,1.7 C41.6,45,37.9,41.3,34.4,40.7z"/><path d="M54.7,34.9c0.7-0.6-4.4-1.1,0-1.8c2.5-0.7,1.7-4.8-1-4.8c-1-0.2-2.3,0.6-3.1-0.7c2.6-0.9,6.1-5.9,1.1-3.9 c-2,0.9-3.9,2-6,0.2c0.8-2,4.9-4.4,2.8-6.5c-3-0.9-4.3,4.4-7.5,4.5c-0.5-1.7,0.6-3.6-1.1-5.3c-1.2,1.8-2.2,3.3-3.6,5.4 c-0.9-4.8,0.9-9-1.7-12.9c-2.8,3.7-1.3,8.2-3.2,12c-1.7-1.2-4.6-4.8-6.5-3.1c-3.8,5.5-7.7-2-11.7,0.7c5.9,3.2,10.3,12.1,17.1,11.3 c2.4-1.8,5,0.2,7.5-0.5c-1.3,7.4,25.4,29.2,13.1,9.2C54.4,39.5,61.4,38,54.7,34.9z"/></g>
<g id="pd"><path d="M27.5,38.1c-3.4-3.6-0.2-7,0.8-10.7c-1.5-9.8-19.8-20.6-7.5-3.1c-2.9,0.7-12.4-6.4-9.8,0.1 c1.7,3.5,6.2,2.9,9,6.2c-3.5,0.3-4.7,1.5-1.3,3.7C7.3,34,2.7,39.5,16.8,41C-2.6,53.2,42.5,50,27.5,38.1z"/><path d="M60.6,31.6c-5.3,1-19.3-2.8-18.9,4.2c-1.5,7.7,9.7,9.5,15.2,10.7c9.1-6.3-0.1-7.7-6.4-10.7 c3.8,0.1,6.3-3.2,9.8-1.5C62.3,35,62.9,31.7,60.6,31.6z"/><path d="M47.3,24.8c1.6-3,8.8-8.5,2.4-9.9C47.1,16.7,40.1,27.9,47.3,24.8z"/><path d="M45.4,29.4c4.5-1,13.4-3.1,13.8-7.8C56.4,20.1,47.3,26.8,45.4,29.4z"/><path d="M46.7,43.5c-3.1,4.3-6.2-4-7.7-0.8c0,5.7-2.6-1.4-3.2,1.2c-1.7,8.8,9.3,26,4.3,5.4c2.7,0.7,3.1,2.9,4.4,4.2 c2.8,4,5.2-1.4,3.4-3.7C54.5,58.2,57,48.2,46.7,43.5z"/></g>
<g id="pe"><path d="M32.5,41.3c-8.8-14.2,9.7-8.6,4.7-23.1c-0.1-1.4-2.6,0.9-3.1-1.5c-3.4-3.8-6.5,4.1-4,6.5 c-1.7-3.3-7.6-5.7-8.9-0.6c-4.6-3.2-6.6-4.5-5.6,2.8c-16.5-0.4,5.4,6,9.4,7.7c-4.2-2-19.5,8.6-7.9,7.9c-2.4,1.3-7,3.3-2.8,6.4 c5.2,2.4,6.2-4.9,12.3-6c-14.9,9.2-3.4,18.7,4.4,6.1C37,72.4,51.7,40.9,32.5,41.3z M20.8,38.7c0.7-0.5,1.5-1,2.3-1.5 C22.4,37.8,21.6,38.2,20.8,38.7z"/><path d="M53.5,35.2c3.7-1,6.5,0.3,8-3.7c-4.1,1.8-5.8-2.8-9.3-2.3c-8.9-1.8-6.6-1.9-1.5-8.1c3.4-4.7-4.4-1.1-6-3.7 c-4.3,0.7-3.8,5-5.7,7.5c-5.5,4.5,5.6,8.2,2,14.2c-0.9,11.9,26.3,24.5,6.9,3.8C61.9,48.7,71.7,43.2,53.5,35.2z"/></g>

<path id="m11" d="M27.1,34.6c1.4-0.9,1.3-2.6,0.8-3.6c-1.1-2.4,0.7-2.3,2-2.9c4.3-2.9,8.6-3.2,12.8,0.3 c0,0,0,0.2,0,0.2c0.6,0.3,1.2,0.5,1.7,1c0.7,1.1,0.8,2.5,1.2,3.7c0.1,1.7,0.7,3.3,0.9,5c0,0.4-0.2,0.8-0.4,1.2 c-1.5-0.8-1.5,0.5-1.9,1.3c-0.7,0.9-1.5,1.7-2.5,2.2c-0.9,0.4-1.8,0.4-2.8,0.1c-1.4-0.5-2.3-1.6-3.1-2.8c-1-1.8,0.4-2.7,1.4-3.7 c1.3-1.3,1.1-2.6,0-3.9c-0.9-1-2-1-3.1-0.1c-1.3,1.1-0.9,2.5,0.1,3.4c1.4,1.3,0.6,3.2,1.6,4.5c0.4,1.8-0.7,2.6-2.1,3.3 c-1.5,0.3-2.9-0.1-4.1-1c-1.1-1.4-2-3.1-3.3-4.3c-0.2-0.4-0.4-0.9-0.5-1.4C25.9,36.1,26.1,35.2,27.1,34.6z"/>
<path id="m12" d="M36.9,44.7c-0.3,0-0.6,0-0.9,0.1c-0.2-0.4-0.5-1.2-0.7-1.2c-6.9,1.1-5.9-4.8-7.5-8.4 c-0.1-0.3-0.4-0.5-0.6-0.8c0-1.5,0.9-2.3,2.2-2.9c1.8,0,0.9-1,0.6-1.7c0.8-1.3,1.5-2.7,3.2-3.1c1.3-0.3,2.5-0.2,3.8,0.2 c2.7,1.8,7,1.2,7.8,5.5c0.3,0.6,0.6,1.3,0.8,1.9c0.2,0.7,0.2,1.4,0,2c-0.3,0.7-1,0.9-1.5,1.4c-0.9,2.6-2.7,4.4-5,5.8 C38.3,43.6,37.4,43.8,36.9,44.7z"/>
<path id="m13" d="M28.1,32.7c0.1-0.9,0.2-1.8,0.3-2.7c2.7-1.1,5.4-2.3,8.1-3.4c1-0.6,2.1-0.4,3.2-0.3 c0.7,0.2,1.2,0.6,1.7,1.1c1.9,2.1,3.2,4.4,3.9,7.2c0.1,0.7,0.2,1.4,0.1,2.1c-0.1,0.7-0.4,1.3-0.7,1.9c-0.2,0.4-0.4,0.8-0.7,1.2 c-0.7,1.4-1.9,2.4-3.1,3.4c-0.8,0.7-1.5,1.5-2.4,2.1c-1.2,0.6-2.5,0.4-3.8,0.2c-0.4,0-0.8-0.2-1.2-0.3c-0.6-0.4-0.9-0.9-0.9-1.6 c-4.3-0.1-4.1-4.2-5.8-6.6C26.2,35.2,28.2,34.2,28.1,32.7z"/>
<path id="m14" d="M31.7,29.5c0.7-0.7,1.4-1.4,2.1-2.1c-0.3-0.3-0.4-0.5-0.2-0.7c0.1-0.1,0.3-0.1,0.5-0.1 c2.7,0.6,5.7,0.5,7.9,2.8c0.7,0.7,1.4,1.4,2.1,2c-0.1,0.3-0.1,0.7-0.2,1c1.4,2.2,0.6,4.5,0.7,6.8c-0.4,1.2-1.2,2.1-2,3.1 c-2.6,2.1-5.5,3.3-8.9,2.3c-1.6-1-3.3-1.8-4.5-3.4c-1-1.4-0.6-2.6,0.5-3.8c-0.8-1.7,0-3.4,0-5.2c0.4-1,0.6-2.1,2-2.1 c0.1,0,0.3-0.2,0.3-0.3C32,29.7,31.8,29.6,31.7,29.5z"/>
<path id="m15" d="M36.3,43.5c-6.3-0.5-8.9-3-9-8.6c-0.1-3.1,4.5-6.8,8.9-7.2c6.5,3.1,7.9,7.7,4.5,15.2 C39.4,44.3,38,44.7,36.3,43.5z"/>
<path id="m16" d="M44.1,38.6c-0.8,0.2-1.2,0.9-1.2,1.7c-1.2,2.1-2.9,3.5-5.4,3.6c-8.1,0.3-11-4.6-7.3-12.3 c2.2-4.2,5.7-5.9,9.3-4.5C44.2,28.8,45.5,32.2,44.1,38.6z"/>
<path id="m17" d="M39,44c-5,0.8-6.3-4.5-9.9-6c-1.7-2.3-0.9-4.6-0.1-6.9c-0.6-1-1.2-1.9-1.9-2.9 c3.9-5.1,8.3-5.2,13-0.1c0.2,0.3,0.4,0.3,0.7,0.3c2.6,0.2,3.3,2.3,4.2,4.3C45.6,39.9,44.3,42.4,39,44z"/>
<path id="m18" d="M28.7,30.7c1.6-0.7,3.5-0.9,4.1-3c0.6-0.1,1.2-0.1,1.7-0.2c2.4-0.4,4,1.2,6,2 c2.5,4.2,1.5,10.4-2,13.1c-3.8-0.3-8.4,0.8-9-5.1C28.6,35.4,28.4,33.1,28.7,30.7z"/>

<path id="m21" d="M39.6,40.2c-3.1-0.4-5.3-1.9-6.2-5c-1.4-2.2-1.4-4.3,0.3-6.4c0.8-0.6,1.9-0.5,2.8-0.8 c3.3-1.1,5.9-0.2,7.5,2.8c1.6,3,0.7,5.7-1.9,7.9C41.4,39.4,40.6,40,39.6,40.2z"/>
<path id="m22" d="M38.8,39.5c-2.2,1.1-4.1,0.3-5.8-1.2c1.2-2.5-1.7-3.8-1.8-5.9c0.5-0.3,1.1-0.6,1.6-0.8 c2.8-4.8,4.4-5.2,9.1-2.4c0.6,1.3,0.8,2.9,1.8,4.1c0.5,1,0.8,2.1,0.8,3.2C43.9,40.1,42.1,41.2,38.8,39.5z"/>
<path id="m23" d="M36.7,40.7c-2.2,1.1-4.1,0.3-5.8-1.2c1.2-2.5-1.7-3.8-1.8-5.9c0.5-0.3,1.1-0.6,1.6-0.8 c2.8-4.8,4.4-5.2,9.1-2.4c0.6,1.3,0.8,2.9,1.8,4.1c0.5,1,0.8,2.1,0.8,3.2C41.8,41.3,40,42.4,36.7,40.7z"/>
<path id="m24" d="M35.4,30.2c0.8,0,1.6,0,2.5,0.1c2.3,0.2,6-0.2,5.2,3.2c-0.6,2.6-0.2,8.2-6.1,6.4 c-1.6-0.5-2.9,0.5-4.3,0.3c-0.3-0.6-0.5-1.3-0.8-1.9c-1.9-2.8-2-5.5,0.8-7.8C33.6,30.4,34.5,30.3,35.4,30.2z"/>
<path id="m25" d="M35.9,40.9c-1.4-0.9-1.7-2.6-3-3.7c-2.1-1.7-2.2-3.8,0.4-5.6c2.3-1.5,4.2-1.7,5.5,1.1 c1,2.1,2.8,4.6-1.2,5.7C36.1,38.8,35.9,39.8,35.9,40.9C35.8,41,35.9,40.9,35.9,40.9z"/>
<path id="m26" d="M37.9,31.4c0.3-0.1,0.5,0,0.8,0.2c1.5,1.4,1.9,3.2,1.6,5.2c-0.1,0.5-0.3,0.9-0.6,1.3 c-1.2,2.4-2.3,4.9-5.7,4.4c-2.9-0.4-4.3-2.2-4.4-5c0.1-0.8,0.5-1.5,1-2.1l0.3-0.1C32.5,32.5,35.8,32.9,37.9,31.4z"/>
<path id="m27" d="M40.1,35.7C38.5,37,37,38.4,34.9,39c-0.3,0-0.6,0.1-0.9,0.2c0,0-0.4-0.1-0.4-0.1s-0.4,0.1-0.4,0.1 c-1.9-0.3-1.7-1.8-1.9-3.1c1.4-1.3-0.1-4.3,2.9-4.6c3-0.4,4.4,1.6,5.8,3.7C40.1,35.3,40.1,35.5,40.1,35.7z"/>
<path id="m28" d="M43.4,33.4c-0.5,1.6-3.3,0.2-3.4,3c-0.1,2-2.2,3.1-4.6,2.3c-2-0.7-1.8-2.5-1.5-3.6 c0.6-2,1.9-4.4,4.5-3.3c1.9,0.8,3.4,1,5-0.2C44.1,32.2,44,32.8,43.4,33.4z"/>
<path id="m29" d="M39.7,36.1c-1.6,0.2-2.4,2.2-4,2.4c-0.6,0.1-3.2,0-2.9-2.4c0.3-2,1.5-2.8,3.4-2.7 C37.8,33.5,39.2,33.9,39.7,36.1z"/>
<path id="m2a" d="M37,34c1,2.1-0.3,3.1-2,3.6c-0.7,0.2-1-0.7-1-1.4C33.8,33.9,35.5,34.1,37,34C37,34,37,34,37,34z"/>

<filter id="filter" x="-20%" y="-20%" width="140%" height="140%" filterUnits="objectBoundingBox" primitiveUnits="userSpaceOnUse" color-interpolation-filters="linearRGB">
  <feTurbulence type="fractalNoise" baseFrequency="0.05" numOctaves="4" seed="15" stitchTiles="stitch" x="0%" y="0%" width="100%" height="100%" result="turbulence"></feTurbulence>
  <feSpecularLighting surfaceScale="10" specularConstant="1.1" specularExponent="20" lighting-color="#417505" x="0%" y="0%" width="100%" height="100%" in="turbulence" result="specularLighting">
    <feDistantLight azimuth="3" elevation="200"></feDistantLight>
  </feSpecularLighting>
  <feColorMatrix type="saturate" values="0" x="0%" y="0%" width="100%" height="100%" in="specularLighting" result="colormatrix"></feColorMatrix>
</filter>

</defs>


<g class="g" style="transform:translate(-35px,-35px)">
<rect x="35" y="35" width="140" height="140" class="bg" />
<rect x="35" y="35" width="140" height="140" fill="#417505"  filter="url(#filter)"/>

<g style="transform:translate(35px,35px)">
<use href="#p3" class="p2 r r2 sh"/>
<use href="#p7" class="p3 r r3 bl"/>
<use href="#m11" class="m1 r r4 sh2"/>
<use href="#m26" class="m2 r r1"/>
</g>

<g style="transform:translate(95px,45px)">
<use href="#p4" class="p1 r r2 sh"/>
<use href="#p8" class="p2 r r1 bl"/>
<use href="#m12" class="m1 r r3 sh2"/>
<use href="#m27" class="m2 r r4"/>
</g>

<g style="transform:translate(70px,70px)">
  <use href="#p5" class="p2 r r2 sh"/>
  <use href="#pa" class="p3 r r1 bl"/>
  <use href="#m13" class="m2 r r3"/>
  <use href="#m25" class="m3 r r4"/>
</g>

<g style="transform:translate(105px,105px)">
  <use href="#p5" class="p3 r r2 sh"/>
  <use href="#pa" class="p4 r r1 bl"/>
  <use href="#m13" class="m2 r r3 sh2"/>
  <use href="#m25" class="m3 r r4"/>
</g>

<g style="transform:translate(35px,105px)">
<use href="#p5" class="p0 r r2 sh"/>
<use href="#pa" class="p1 bl r r1"/>
<use href="#m13" class="m1 r r3 sh2"/>
<use href="#m25" class="m2 r r4"/>
</g>

</g>
</svg>
