<svg xmlns="http://www.w3.org/2000/svg" xmlns:xlink="http://www.w3.org/1999/xlink" version="1.1" width="1200" height="1200" viewBox="0 0 70 70">
<style>.bl{mix-blend-mode:screen;}.r{transform-origin:center;transform-box:fill-box;}.r0{transform:rotate(139deg);}.r1{transform:rotate(34deg);}.r2{transform:rotate(229deg);}.r3{transform:rotate(212deg);}.r4{transform:rotate(273deg);}.sh{filter:drop-shadow(1px 1px 2px #90325B80);}.bg{fill:#100010;}.p0{fill:#90325B;}.p1{fill:#D03E80;}.p2{fill:#F77BAF;}.p3{fill:#ECA7CB;}.p4{fill:#FBDDEA;}.m0{fill:#732C2C;}.m1{fill:#A52135;}.m2{fill:#E9583E;}.m3{fill:#FBB451;}</style>
<defs>
<path id="p0" d="M62.8,37.5c-7.8-3.3,2.5-2.1,1.2-6.4c-1.2-9.2-5.9-5.8-13.7-5.2c4.4-1.5,15.6-12.4,5.6-8.6 c-3.5,1,2.5-9.9-8.1-1.7c1.1-4.7-3.6-4.5-5.7-1.2c0.1-8.9-6.1-10.6-6.8-0.7c-0.4-8.2-7.7-5-5.8,1c-3.5-9.8-10.6-9.2-6.1,1.8 c-6.8-6.5-10.2-0.4-4.4,5.1c-5.8-3.8-13.1,0.3-5.4,5.3c1.2,0.5,1.3,1,0,0.9c-6.4,1-6.7,4.7-0.9,6.7c-5.2,1.9-4.7,7.5,1.6,6 c-3.4,1.8-5.6,6.1,0.1,6.3c-3.8,8,3.8,6.7,7,3c-2.9,3.7-1.6,11.6,3.3,6c1-0.8,3.8-6.1,3.8-4.1c-0.2,2,1,11.1,4.5,8.3 c1.3-1,1.7,1.2,2.9,0.8c3.7,1.3,2.1-7.1,4.3-3.8c5.8,9.5,3.9-6.2,2.2-9.8c3,2.8,11.4,14.7,11.7,5c-0.2-1.3,0.7-1.1,1.5-1 c7,0.5-3.5-8.8-5.4-10.6C53.4,40.7,69.5,44.2,62.8,37.5z"/>
<g id="pc">
<path d="M28.8,40.4c-3-1.1-1.2-6.1-4.8-6.1c-3.6-1.8-9.6,0.8-9.9,5.1c0.3,0.3,1.4-0.1,0.9,0.7 c-2.7,4.4,3.3,2.4,5.2,2.2c-5.2,3.6-6.4,11,1.6,5.4c-6.2,12.8,11.9-1.7,7.8-5.8"/>
<path d="M23.5,33.5c1,0.2,0.7-1.4,1.7-1.2c-4.2-4-10.1-5.7-15.1-2.4C13.8,33.3,18.4,33.9,23.5,33.5z"/>
<path d="M55.9,47.6c-2.2-3.7-6.9-5.3-8.1-9.7c-4.2-0.1-6,2-5.9,6c-1-0.7-1.2-2.3-2.6-2.6l-1,3.7 c-4.5-6.8-6.2,7.7-5.4,10.8c1.2,9.3,6.7-3.6,5.7-7.3c3.5,17.3,6,4.9,3.9-4.2c2.2,2.5,6.6,10.1,10.1,7 C55.8,52.5,58.9,52.4,55.9,47.6z"/>
<path d="M35.6,25.9c3.5-11-11-26.5-4.7-4.2c-2.1-1.7-9.5-11.8-8.9-4c-7.9-5.2-5.9,0.9-1.3,4.7c2,3.6,7.7,9,9.5,3.2 C30,28.8,34.5,28.3,35.6,25.9z"/>
<path d="M38.5,28c1.8,1.1,2.3,1.7,5.5,2.4c4.5,2.5,20.8-17.8,5.9-8.6c6.6-10.7-1.3-6.9-5.8-1.2 c1.1-2.7,2.7-8.1,0.1-10.2C41.4,10.2,36.1,24.9,38.5,28z"/>
</g>
<path id="m17" d="M28.3,30.2c1.6-0.7,3.5-0.9,4.1-3c0.6-0.1,1.2-0.1,1.7-0.2c2.4-0.4,4,1.2,6,2 c2.5,4.2,1.5,10.4-2,13.1c-3.8-0.3-8.4,0.8-9-5.1C28.2,34.8,27.9,32.6,28.3,30.2z"/>
<path id="m23" d="M35.9,40.9c-1.4-0.9-1.7-2.6-3-3.7c-2.1-1.7-2.2-3.8,0.4-5.6c2.3-1.5,4.2-1.7,5.5,1.1 c1,2.1,2.8,4.6-1.2,5.7C36.1,38.8,35.9,39.8,35.9,40.9C35.8,41,35.9,40.9,35.9,40.9z"/>
</defs>
<g class="g" style="transform:translate(-35px,-35px)">
<rect x="35" y="35" width="70" height="70" class="bg"/>
<g style="transform:scale(1)translate(35px,35px)">
<use href="#p0" class="p2 r r0 sh"/>
<use href="#pc" class="p3 r r1 bl"/>
<use href="#m17" class="m2 r r2 sh"/>
<use href="#m23" class="m3 r r3"/>
</g>
</g>
</svg>